<mxfile host="app.diagrams.net" modified="2024-05-03T18:17:46.077Z" agent="Mozilla/5.0 (Windows NT 10.0; Win64; x64) AppleWebKit/537.36 (KHTML, like Gecko) Chrome/124.0.0.0 Safari/537.36 Edg/124.0.0.0" etag="k5HZyaHPBcrxLUOQ1Feo" version="24.3.1" type="google">
  <diagram name="PÃ¡gina-1" id="TiT2TfCTh9kY8VwOHj0-">
    <mxGraphModel grid="1" page="1" gridSize="10" guides="1" tooltips="1" connect="1" arrows="1" fold="1" pageScale="1" pageWidth="827" pageHeight="1169" math="0" shadow="0">
      <root>
        <mxCell id="0" />
        <mxCell id="1" parent="0" />
        <mxCell id="PPLbYWVCfKu_Xlr3tgbA-3" value="" style="edgeStyle=orthogonalEdgeStyle;rounded=0;orthogonalLoop=1;jettySize=auto;html=1;" edge="1" parent="1" source="PPLbYWVCfKu_Xlr3tgbA-1" target="PPLbYWVCfKu_Xlr3tgbA-2">
          <mxGeometry relative="1" as="geometry" />
        </mxCell>
        <mxCell id="PPLbYWVCfKu_Xlr3tgbA-1" value="INICIO" style="ellipse;whiteSpace=wrap;html=1;" vertex="1" parent="1">
          <mxGeometry x="280" y="40" width="80" height="80" as="geometry" />
        </mxCell>
        <mxCell id="PPLbYWVCfKu_Xlr3tgbA-5" value="" style="edgeStyle=orthogonalEdgeStyle;rounded=0;orthogonalLoop=1;jettySize=auto;html=1;" edge="1" parent="1" source="PPLbYWVCfKu_Xlr3tgbA-2" target="PPLbYWVCfKu_Xlr3tgbA-4">
          <mxGeometry relative="1" as="geometry" />
        </mxCell>
        <mxCell id="PPLbYWVCfKu_Xlr3tgbA-2" value="INPUT&lt;div&gt;divident, divider&lt;/div&gt;" style="shape=parallelogram;perimeter=parallelogramPerimeter;whiteSpace=wrap;html=1;fixedSize=1;" vertex="1" parent="1">
          <mxGeometry x="260" y="160" width="120" height="60" as="geometry" />
        </mxCell>
        <mxCell id="PPLbYWVCfKu_Xlr3tgbA-7" value="" style="edgeStyle=orthogonalEdgeStyle;rounded=0;orthogonalLoop=1;jettySize=auto;html=1;" edge="1" parent="1" source="PPLbYWVCfKu_Xlr3tgbA-4" target="PPLbYWVCfKu_Xlr3tgbA-6">
          <mxGeometry relative="1" as="geometry" />
        </mxCell>
        <mxCell id="PPLbYWVCfKu_Xlr3tgbA-4" value="cociente = 0&lt;div&gt;residuo = divident&lt;/div&gt;&lt;div&gt;i = 0&lt;/div&gt;" style="whiteSpace=wrap;html=1;" vertex="1" parent="1">
          <mxGeometry x="260" y="260" width="120" height="60" as="geometry" />
        </mxCell>
        <mxCell id="PPLbYWVCfKu_Xlr3tgbA-10" value="" style="edgeStyle=orthogonalEdgeStyle;rounded=0;orthogonalLoop=1;jettySize=auto;html=1;" edge="1" parent="1" source="PPLbYWVCfKu_Xlr3tgbA-6" target="PPLbYWVCfKu_Xlr3tgbA-9">
          <mxGeometry relative="1" as="geometry" />
        </mxCell>
        <mxCell id="PPLbYWVCfKu_Xlr3tgbA-23" style="edgeStyle=orthogonalEdgeStyle;rounded=0;orthogonalLoop=1;jettySize=auto;html=1;entryX=0;entryY=0.5;entryDx=0;entryDy=0;" edge="1" parent="1" source="PPLbYWVCfKu_Xlr3tgbA-6" target="PPLbYWVCfKu_Xlr3tgbA-16">
          <mxGeometry relative="1" as="geometry">
            <mxPoint x="200" y="630" as="targetPoint" />
            <Array as="points">
              <mxPoint x="200" y="400" />
              <mxPoint x="200" y="625" />
            </Array>
          </mxGeometry>
        </mxCell>
        <mxCell id="PPLbYWVCfKu_Xlr3tgbA-6" value="divider != 0" style="rhombus;whiteSpace=wrap;html=1;" vertex="1" parent="1">
          <mxGeometry x="280" y="360" width="80" height="80" as="geometry" />
        </mxCell>
        <mxCell id="PPLbYWVCfKu_Xlr3tgbA-8" value="SI" style="text;html=1;align=center;verticalAlign=middle;resizable=0;points=[];autosize=1;strokeColor=none;fillColor=none;" vertex="1" parent="1">
          <mxGeometry x="330" y="440" width="30" height="30" as="geometry" />
        </mxCell>
        <mxCell id="PPLbYWVCfKu_Xlr3tgbA-13" value="" style="edgeStyle=orthogonalEdgeStyle;rounded=0;orthogonalLoop=1;jettySize=auto;html=1;" edge="1" parent="1" source="PPLbYWVCfKu_Xlr3tgbA-9" target="PPLbYWVCfKu_Xlr3tgbA-12">
          <mxGeometry relative="1" as="geometry">
            <Array as="points">
              <mxPoint x="410" y="510" />
              <mxPoint x="410" y="420" />
            </Array>
          </mxGeometry>
        </mxCell>
        <mxCell id="PPLbYWVCfKu_Xlr3tgbA-17" value="" style="edgeStyle=orthogonalEdgeStyle;rounded=0;orthogonalLoop=1;jettySize=auto;html=1;" edge="1" parent="1" source="PPLbYWVCfKu_Xlr3tgbA-9" target="PPLbYWVCfKu_Xlr3tgbA-16">
          <mxGeometry relative="1" as="geometry" />
        </mxCell>
        <mxCell id="PPLbYWVCfKu_Xlr3tgbA-9" value="residuo - divider &amp;gt;= 0" style="rhombus;whiteSpace=wrap;html=1;" vertex="1" parent="1">
          <mxGeometry x="245" y="470" width="150" height="80" as="geometry" />
        </mxCell>
        <mxCell id="PPLbYWVCfKu_Xlr3tgbA-11" value="SI" style="text;html=1;align=center;verticalAlign=middle;resizable=0;points=[];autosize=1;strokeColor=none;fillColor=none;" vertex="1" parent="1">
          <mxGeometry x="414" y="460" width="30" height="30" as="geometry" />
        </mxCell>
        <mxCell id="PPLbYWVCfKu_Xlr3tgbA-28" value="" style="edgeStyle=orthogonalEdgeStyle;rounded=0;orthogonalLoop=1;jettySize=auto;html=1;" edge="1" parent="1" source="PPLbYWVCfKu_Xlr3tgbA-12" target="PPLbYWVCfKu_Xlr3tgbA-27">
          <mxGeometry relative="1" as="geometry" />
        </mxCell>
        <mxCell id="PPLbYWVCfKu_Xlr3tgbA-12" value="residuo = residuo - divider" style="whiteSpace=wrap;html=1;" vertex="1" parent="1">
          <mxGeometry x="470" y="390" width="155" height="60" as="geometry" />
        </mxCell>
        <mxCell id="PPLbYWVCfKu_Xlr3tgbA-20" value="" style="edgeStyle=orthogonalEdgeStyle;rounded=0;orthogonalLoop=1;jettySize=auto;html=1;" edge="1" parent="1" source="PPLbYWVCfKu_Xlr3tgbA-16" target="PPLbYWVCfKu_Xlr3tgbA-19">
          <mxGeometry relative="1" as="geometry" />
        </mxCell>
        <mxCell id="PPLbYWVCfKu_Xlr3tgbA-16" value="cociente = i" style="whiteSpace=wrap;html=1;" vertex="1" parent="1">
          <mxGeometry x="270" y="600" width="100" height="50" as="geometry" />
        </mxCell>
        <mxCell id="PPLbYWVCfKu_Xlr3tgbA-18" value="NO" style="text;html=1;align=center;verticalAlign=middle;resizable=0;points=[];autosize=1;strokeColor=none;fillColor=none;" vertex="1" parent="1">
          <mxGeometry x="320" y="558" width="40" height="30" as="geometry" />
        </mxCell>
        <mxCell id="PPLbYWVCfKu_Xlr3tgbA-22" value="" style="edgeStyle=orthogonalEdgeStyle;rounded=0;orthogonalLoop=1;jettySize=auto;html=1;" edge="1" parent="1" source="PPLbYWVCfKu_Xlr3tgbA-19" target="PPLbYWVCfKu_Xlr3tgbA-21">
          <mxGeometry relative="1" as="geometry" />
        </mxCell>
        <mxCell id="PPLbYWVCfKu_Xlr3tgbA-19" value="cociente, &quot; &quot;,&amp;nbsp;&lt;span style=&quot;background-color: initial;&quot;&gt;residuo&lt;/span&gt;" style="shape=parallelogram;perimeter=parallelogramPerimeter;whiteSpace=wrap;html=1;fixedSize=1;" vertex="1" parent="1">
          <mxGeometry x="240" y="690" width="160" height="60" as="geometry" />
        </mxCell>
        <mxCell id="PPLbYWVCfKu_Xlr3tgbA-21" value="FIN" style="ellipse;whiteSpace=wrap;html=1;" vertex="1" parent="1">
          <mxGeometry x="280" y="780" width="80" height="80" as="geometry" />
        </mxCell>
        <mxCell id="PPLbYWVCfKu_Xlr3tgbA-24" value="NO" style="text;html=1;align=center;verticalAlign=middle;resizable=0;points=[];autosize=1;strokeColor=none;fillColor=none;" vertex="1" parent="1">
          <mxGeometry x="240" y="368" width="40" height="30" as="geometry" />
        </mxCell>
        <mxCell id="PPLbYWVCfKu_Xlr3tgbA-27" value="++i" style="whiteSpace=wrap;html=1;" vertex="1" parent="1">
          <mxGeometry x="521.25" y="470" width="52.5" height="30" as="geometry" />
        </mxCell>
        <mxCell id="PPLbYWVCfKu_Xlr3tgbA-29" style="edgeStyle=orthogonalEdgeStyle;rounded=0;orthogonalLoop=1;jettySize=auto;html=1;entryX=0.713;entryY=0.85;entryDx=0;entryDy=0;entryPerimeter=0;" edge="1" parent="1" source="PPLbYWVCfKu_Xlr3tgbA-27" target="PPLbYWVCfKu_Xlr3tgbA-9">
          <mxGeometry relative="1" as="geometry">
            <Array as="points">
              <mxPoint x="548" y="538" />
            </Array>
          </mxGeometry>
        </mxCell>
      </root>
    </mxGraphModel>
  </diagram>
</mxfile>
